<?xml version="1.0" standalone="no"?><!DOCTYPE svg PUBLIC "-//W3C//DTD SVG 1.1//EN" "http://www.w3.org/Graphics/SVG/1.1/DTD/svg11.dtd"><svg t="1586267136382" class="icon" viewBox="0 0 1024 1024" version="1.1" xmlns="http://www.w3.org/2000/svg" p-id="2567" xmlns:xlink="http://www.w3.org/1999/xlink" width="200" height="200"><defs><style type="text/css"></style></defs><path d="M512 149.333333A362.666667 362.666667 0 1 1 149.333333 512 362.666667 362.666667 0 0 1 512 149.333333m0-42.666666a405.333333 405.333333 0 1 0 405.333333 405.333333A405.333333 405.333333 0 0 0 512 106.666667z" p-id="2568" fill="#2aa515"></path><path d="M512 277.333333a234.666667 234.666667 0 0 1 234.666667 234.666667h42.666666a277.333333 277.333333 0 0 0-554.666666 0h42.666666a234.666667 234.666667 0 0 1 234.666667-234.666667zM512 640a42.666667 42.666667 0 1 1-42.666667 42.666667 42.666667 42.666667 0 0 1 42.666667-42.666667m0-42.666667a85.333333 85.333333 0 1 0 85.333333 85.333334 85.333333 85.333333 0 0 0-85.333333-85.333334z" p-id="2569" fill="#2aa515"></path><path d="M490.666667 384h42.666666v256h-42.666666z" p-id="2570" fill="#2aa515"></path></svg>